<svg width="12" height="12" viewBox="0 0 12 12" fill="#fff" xmlns="http://www.w3.org/2000/svg">
<path d="M7.06042 6L8.99992 4.0585C9.12584 3.91538 9.19254 3.72968 9.18646 3.53915C9.18037 3.34861 9.10196 3.16755 8.96717 3.03275C8.83237 2.89795 8.6513 2.81955 8.46077 2.81346C8.27024 2.80738 8.08454 2.87408 7.94142 3L5.99992 4.9395L4.05492 2.994C3.98525 2.92434 3.90254 2.86907 3.81152 2.83137C3.7205 2.79367 3.62294 2.77426 3.52442 2.77426C3.42589 2.77426 3.32834 2.79367 3.23731 2.83137C3.14629 2.86907 3.06358 2.92434 2.99392 2.994C2.92425 3.06367 2.86899 3.14637 2.83128 3.2374C2.79358 3.32842 2.77418 3.42598 2.77418 3.5245C2.77418 3.62302 2.79358 3.72058 2.83128 3.81161C2.86899 3.90263 2.92425 3.98534 2.99392 4.055L4.93942 6L2.99992 7.941C2.92385 8.009 2.86246 8.09179 2.8195 8.18433C2.77653 8.27687 2.7529 8.3772 2.75005 8.47918C2.7472 8.58117 2.76518 8.68266 2.8029 8.77745C2.84062 8.87225 2.89728 8.95835 2.96943 9.03049C3.04157 9.10263 3.12767 9.1593 3.22246 9.19702C3.31726 9.23474 3.41875 9.25272 3.52074 9.24987C3.62272 9.24702 3.72305 9.22338 3.81559 9.18042C3.90812 9.13746 3.99092 9.07607 4.05892 9L5.99992 7.0605L7.93892 9C8.07961 9.1407 8.27044 9.21974 8.46942 9.21974C8.66839 9.21974 8.85922 9.1407 8.99992 9C9.14061 8.8593 9.21966 8.66848 9.21966 8.4695C9.21966 8.27053 9.14061 8.0797 8.99992 7.939L7.06042 6Z" fill="#white" fill-opacity="02"/>
</svg>
